<svg width="612" height="792" viewBox="0 0 612 792" fill="none" xmlns="http://www.w3.org/2000/svg">
  <style><![CDATA[
    @import url('https://fonts.googleapis.com/css2?family=Inter:wght@100;200;300;400;500;600;700;800;900&display=swap');
    text { font-family: 'Inter', sans-serif; }
]]></style>
<g clip-path="url(#clip0_3_79)">
<rect width="612" height="792" fill="#FEFDFB"/>
<text fill="black" xml:space="preserve" style="white-space: pre" font-family="Inter" font-size="30" font-weight="bold" letter-spacing="0em"><tspan x="57" y="88.9091">Join the PDF revolution</tspan></text>
<text fill="black" xml:space="preserve" style="white-space: pre" font-family="Inter" font-size="20" letter-spacing="0em"><tspan x="57" y="180.273">Every developer who switches to </tspan><tspan x="57" y="204.273">EmbedPDF strengthens our community and </tspan><tspan x="57" y="228.273">helps improve the product for everyone.&#10;</tspan><tspan x="57" y="252.273">&#10;</tspan><tspan x="57" y="276.273">By choosing EmbedPDF, you&#39;re not just </tspan><tspan x="57" y="300.273">making a technical decision &#x2013; you&#39;re joining </tspan><tspan x="57" y="324.273">a movement of developers who believe that </tspan><tspan x="57" y="348.273">fundamental functionality like PDF viewing </tspan><tspan x="57" y="372.273">shouldn&#39;t be locked behind expensive </tspan><tspan x="57" y="396.273">licenses and artificial restrictions.&#10;</tspan><tspan x="57" y="420.273">&#10;</tspan><tspan x="57" y="444.273">Visit our GitHub repository today to see </tspan><tspan x="57" y="468.273">EmbedPDF in action, and free yourself from </tspan><tspan x="57" y="492.273">the PDF integration pain once and for all.</tspan></text>
<text fill="black" xml:space="preserve" style="white-space: pre" font-family="Inter" font-size="20" font-weight="bold" letter-spacing="0em"><tspan x="537" y="759.273">4</tspan></text>
<rect x="57" y="130" width="9" height="363" rx="4.5" transform="rotate(-90 57 130)" fill="#8CAEDC"/>
<line x1="57" y1="720.5" x2="555" y2="720.5" stroke="#13125C"/>
<rect x="507.5" y="666.5" width="84" height="233" rx="42" transform="rotate(-90 507.5 666.5)" fill="#24278A" stroke="#24278A"/>
<rect x="470.5" y="-71.5" width="106" height="232.585" rx="53" stroke="#765BA7"/>
</g>
<defs>
<clipPath id="clip0_3_79">
<rect width="612" height="792" fill="white"/>
</clipPath>
</defs>
</svg>
