<svg width="612" height="792" viewBox="0 0 612 792" fill="none" xmlns="http://www.w3.org/2000/svg">
  <style><![CDATA[
    @import url('https://fonts.googleapis.com/css2?family=Inter:wght@100;200;300;400;500;600;700;800;900&display=swap');
    text { font-family: 'Inter', sans-serif; }
]]></style>
<g clip-path="url(#clip0_1_2)">
<rect width="612" height="792" fill="#13125C"/>
<g clip-path="url(#clip1_1_2)">
<path d="M117.855 182.465H170.034C172.034 182.465 173.652 180.831 173.652 178.826C173.652 178.096 173.431 177.421 173.068 176.852C173.068 176.852 173.068 176.852 173.074 176.852L161.892 159.518C161.197 158.447 160.04 157.853 158.852 157.853C158.175 157.853 157.492 158.045 156.877 158.447C155.203 159.536 154.723 161.795 155.818 163.478L163.375 175.2H117.849C115.849 175.2 114.231 176.827 114.231 178.839C114.231 180.85 115.849 182.478 117.849 182.478L117.855 182.465Z" fill="#8CAEDC"/>
<path d="M131.129 161.219H114.237V116.933C114.237 114.934 112.606 113.294 110.618 113.294C108.631 113.294 107 114.934 107 116.933V164.858C107 166.87 108.618 168.497 110.618 168.497H131.129C133.117 168.497 134.748 166.857 134.748 164.858C134.748 162.859 133.117 161.219 131.129 161.219Z" fill="#F79151"/>
<path d="M162.871 123.264H179.763V167.55C179.763 169.549 181.394 171.189 183.382 171.189C185.369 171.189 187 169.549 187 167.55V119.625C187 117.614 185.382 115.986 183.382 115.986H162.871C160.883 115.986 159.252 117.626 159.252 119.625C159.252 121.624 160.883 123.264 162.871 123.264Z" fill="#765BA7"/>
<path d="M176.145 102.012H123.966C121.966 102.012 120.348 103.646 120.348 105.651C120.348 106.382 120.569 107.056 120.932 107.626C120.932 107.626 120.932 107.626 120.926 107.626L132.108 124.96C132.803 126.031 133.96 126.625 135.148 126.625C135.825 126.625 136.508 126.433 137.123 126.031C138.797 124.941 139.277 122.683 138.182 120.999L130.625 109.278H176.151C178.151 109.278 179.769 107.65 179.769 105.639C179.769 103.628 178.151 102 176.151 102L176.145 102.012Z" fill="#EF3D55"/>
</g>
<rect opacity="0.7" x="214.634" y="599.157" width="139.047" height="421.693" rx="69.5234" transform="rotate(-30 214.634 599.157)" stroke="#765BA7" stroke-width="2"/>
<rect x="358" y="80.0468" width="137.047" height="374" rx="68.5234" transform="rotate(-90 358 80.0468)" fill="#24278A"/>
<rect x="-175.5" y="817.547" width="138.047" height="375" rx="69.0234" transform="rotate(-90 -175.5 817.547)" stroke="#24278A"/>
<rect x="528" y="707.047" width="98" height="151" rx="49" transform="rotate(-90 528 707.047)" fill="#24278A"/>
<rect opacity="0.5" x="-81.5" y="107.5" width="79" height="163" rx="39.5" transform="rotate(-90 -81.5 107.5)" stroke="#F79151"/>
<rect opacity="0.5" x="-101.941" y="776.041" width="150.99" height="312.517" rx="75.4948" transform="rotate(-135 -101.941 776.041)" stroke="#EF3D55"/>
<text fill="white" xml:space="preserve" style="white-space: pre" font-family="Inter" font-size="50" font-weight="bold" letter-spacing="0em"><tspan x="209.324" y="161.182">EmbedPDF</tspan></text>
<text fill="white" xml:space="preserve" style="white-space: pre" font-family="Inter" font-size="40" font-weight="500" letter-spacing="0em"><tspan x="106" y="257.545">PDF Viewers Are a </tspan><tspan x="106" y="305.545">Pain (But they Don&#x2019;t </tspan><tspan x="106" y="353.545">Have to Be)</tspan></text>
<text fill="white" xml:space="preserve" style="white-space: pre" font-family="Inter" font-size="28" font-weight="200" letter-spacing="0em"><tspan x="106" y="412.182">How EmbedPDF is Making </tspan><tspan x="106" y="446.182">PDF Integration Actually </tspan><tspan x="106" y="480.182">Enjoyable</tspan></text>
<text fill="#60B1F8" xml:space="preserve" style="white-space: pre" font-family="Inter" font-size="30" font-weight="500" letter-spacing="0em"><tspan x="106" y="544.909">Bob Singor</tspan></text>
<path d="M328 517C328 503.745 338.745 493 352 493H441L491 543V671C491 684.255 480.255 695 467 695H352C338.745 695 328 684.255 328 671V517Z" fill="white"/>
<mask id="path-16-inside-1_1_2" fill="white">
<path d="M388 637C388 632.029 392.029 628 397 628H491V674H397C392.029 674 388 669.971 388 665V637Z"/>
</mask>
<path d="M388 637C388 632.029 392.029 628 397 628H491V674H397C392.029 674 388 669.971 388 665V637Z" fill="#13135A"/>
<path d="M388 628H491H388ZM491 674H388H491ZM388 674V628V674ZM494 628V674H488V628H494Z" fill="#4569E3" mask="url(#path-16-inside-1_1_2)"/>
<path d="M441 523V493L491 543H461C449.954 543 441 534.046 441 523Z" fill="#4569E3"/>
<rect x="348" y="535" width="80" height="8" rx="4" fill="#7DA6DE"/>
<rect x="348" y="598" width="80" height="8" rx="4" fill="#7DA6DE"/>
<rect x="348" y="556" width="106" height="8" rx="4" fill="#7DA6DE"/>
<rect x="348" y="577" width="106" height="8" rx="4" fill="#7DA6DE"/>
<text fill="white" xml:space="preserve" style="white-space: pre" font-family="Inter" font-size="30" font-weight="bold" letter-spacing="0em"><tspan x="411.601" y="661.909">PDF</tspan></text>
</g>
<defs>
<clipPath id="clip0_1_2">
<rect width="612" height="792" fill="white"/>
</clipPath>
<clipPath id="clip1_1_2">
<rect width="80" height="82" fill="white" transform="translate(107 102)"/>
</clipPath>
</defs>
</svg>
