<svg xmlns="http://www.w3.org/2000/svg" version="1.1" xmlns:xlink="http://www.w3.org/1999/xlink" xmlns:svgjs="http://svgjs.dev/svgjs" width="52px" height="53px"><svg width="52px" height="53px" viewBox="0 0 52 53" version="1.1" xmlns="http://www.w3.org/2000/svg" xmlns:xlink="http://www.w3.org/1999/xlink">
    <title>Group</title>
    <g id="SvgjsG1037" stroke="none" stroke-width="1" fill="none" fill-rule="evenodd">
        <g id="SvgjsG1036" transform="translate(-74, -74)" fill-rule="nonzero">
            <g id="SvgjsG1035" transform="translate(74, 74)">
                <path d="M7.056,52.008 L40.972,52.008 C42.272,52.008 43.324,50.952 43.324,49.656 C43.324,49.184 43.18,48.748 42.944,48.38 C42.944,48.38 42.944,48.38 42.948,48.38 L35.68,37.176 C35.228,36.484 34.476,36.1 33.704,36.1 C33.264,36.1 32.82,36.224 32.42,36.484 C31.332,37.188 31.02,38.648 31.732,39.736 L36.644,47.312 L7.052,47.312 C5.752,47.312 4.7,48.364 4.7,49.664 C4.7,50.964 5.752,52.016 7.052,52.016 L7.056,52.008 Z" id="SvgjsPath1034" fill="#8CAEDC"></path>
                <path d="M15.684,38.276 L4.704,38.276 L4.704,9.652 C4.704,8.36 3.644,7.3 2.352,7.3 C1.06,7.3 3.55271368e-15,8.36 3.55271368e-15,9.652 L3.55271368e-15,40.628 C3.55271368e-15,41.928 1.052,42.98 2.352,42.98 L15.684,42.98 C16.976,42.98 18.036,41.92 18.036,40.628 C18.036,39.336 16.976,38.276 15.684,38.276 Z" id="SvgjsPath1033" fill="#F79151"></path>
                <path d="M36.316,13.744 L47.296,13.744 L47.296,42.368 C47.296,43.66 48.356,44.72 49.648,44.72 C50.94,44.72 52,43.66 52,42.368 L52,11.392 C52,10.092 50.948,9.04 49.648,9.04 L36.316,9.04 C35.024,9.04 33.964,10.1 33.964,11.392 C33.964,12.684 35.024,13.744 36.316,13.744 L36.316,13.744 Z" id="SvgjsPath1032" fill="#765BA7"></path>
                <path d="M44.944,0.008 L11.028,0.008 C9.728,0.008 8.676,1.064 8.676,2.36 C8.676,2.832 8.82,3.268 9.056,3.636 C9.056,3.636 9.056,3.636 9.052,3.636 L16.32,14.84 C16.772,15.532 17.524,15.916 18.296,15.916 C18.736,15.916 19.18,15.792 19.58,15.532 C20.668,14.828 20.98,13.368 20.268,12.28 L15.356,4.704 L44.948,4.704 C46.248,4.704 47.3,3.652 47.3,2.352 C47.3,1.052 46.248,0 44.948,0 L44.944,0.008 Z" id="SvgjsPath1031" fill="#EF3D55"></path>
            </g>
        </g>
    </g>
</svg><style>@media (prefers-color-scheme: light) { :root { filter: none; } }
@media (prefers-color-scheme: dark) { :root { filter: none; } }
</style></svg>